PathFileType	4	(X/Y/Z)	4_coords_data.trc
DataRate	CameraRate	NumFrames	NumMarkers	Units	OrigDataRate	OrigDataStartFrame	OrigNumFrames
30.0	30.0	6	21	m	30.0	20	49
Frame#	Time	THUMB_TIP	THUMB_IP	THUMB_MCP	THUMB_CMC	INDEX_TIP	INDEX_DIP	INDEX_PIP	INDEX_MCP	MIDDLE_TIP	MIDDLE_DIP	MIDDLE_PIP	MIDDLE_MCP	RING_TIP	RING_DIP	RING_PIP	RING_MCP	PINKY_TIP	PINKY_DIP	PINKY_PIP	PINKY_MCP	WRIST
X1	Y1	Z1	X2	Y2	Z2	X3	Y3	Z3	X4	Y4	Z4	X5	Y5	Z5	X6	Y6	Z6	X7	Y7	Z7	X8	Y8	Z8	X9	Y9	Z9	X10	Y10	Z10	X11	Y11	Z11	X12	Y12	Z12	X13	Y13	Z13	X14	Y14	Z14	X15	Y15	Z15	X16	Y16	Z16	X17	Y17	Z17	X18	Y18	Z18	X19	Y19	Z19	X20	Y20	Z20	X21	Y21	Z21
19	0.6333333333333333	-0.001474859952926635	-0.048131301879882814	0.9892559814453125	-0.012146599769592285	-0.03816270065307617	1.0136400146484374	-0.007286389827728271	-0.022124000549316406	1.0398900146484376	-0.02588529968261719	0.0018677899837493891	1.0521800537109376	0.011328000068664551	-0.13570199584960937	1.025739990234375	0.005941110134124756	-0.1147429962158203	1.0345699462890625	-0.001412240028381347	-0.09517320251464843	1.04397998046875	-0.01773740005493164	-0.06255649948120118	1.0634200439453125	-0.013414999961853028	-0.042742298126220706	1.0328699951171876	-0.010270899772644042	-0.05849779891967773	1.0188099975585938	-0.02191710090637207	-0.08292189788818359	1.0230900268554688	-0.04542240142822265	-0.0665687026977539	1.0618199462890625	-0.02725029945373535	-0.037897598266601565	1.01872998046875	-0.0266919002532959	-0.05382279968261719	1.0060599975585938	-0.04040719985961914	-0.07648930358886719	1.011030029296875	-0.059603401184082035	-0.059437698364257815	1.044219970703125	-0.07932319641113281	-0.1201719970703125	1.0123300170898437	-0.07566069793701172	-0.09811190032958984	1.0145700073242188	-0.0730385971069336	-0.07918240356445312	1.018739990234375	-0.06913169860839843	-0.04911420059204102	1.025800048828125	-0.05793920135498047	0.00996697998046875	1.07797998046875
20	0.6666666666666666	-0.0014748300313949581	-0.04840129852294922	0.9892750244140625	-0.012132200241088867	-0.03840610122680664	1.0136699829101563	-0.007310400009155274	-0.022438600540161134	1.0399300537109375	-0.02601479911804199	0.001558670043945312	1.0522900390625	0.011119400024414063	-0.13561399841308594	1.025280029296875	0.00578233003616333	-0.11475499725341796	1.03427001953125	-0.0015867099761962891	-0.09523770141601562	1.0438499755859374	-0.01788599967956543	-0.06281850051879882	1.0636700439453124	-0.013496000289916993	-0.043155399322509766	1.03372998046875	-0.010355500221252442	-0.05872949981689453	1.0190399780273438	-0.022041299819946288	-0.0831323013305664	1.0231799926757812	-0.04557080078125	-0.0669832992553711	1.0624100341796876	-0.027272100448608397	-0.038041000366210935	1.0186799926757812	-0.026815099716186522	-0.05406869888305664	1.006219970703125	-0.040450401306152343	-0.0767667999267578	1.0111799926757812	-0.059814998626708984	-0.05967470169067383	1.0443699951171874	-0.07909210205078125	-0.12054000091552734	1.0123400268554688	-0.0755072021484375	-0.09842510223388672	1.0146199951171875	-0.07298560333251954	-0.07949620056152344	1.0188200073242188	-0.06921269989013672	-0.04943849945068359	1.0258299560546875	-0.05816680145263672	0.00968529987335205	1.0780400390625
21	0.7	-0.001529860019683838	-0.04875360107421875	0.9895230102539062	-0.01209000015258789	-0.03871620178222656	1.0141699829101563	-0.007279290199279785	-0.02274920082092285	1.0403299560546875	-0.026039199829101564	0.001276960015296936	1.0526300048828126	0.011124300003051759	-0.13547999572753905	1.02493994140625	0.00570718002319336	-0.11466400146484375	1.0341500244140625	-0.001660079956054687	-0.09525769805908203	1.0439300537109375	-0.01791510009765625	-0.06311949920654297	1.06381005859375	-0.01342899990081787	-0.04339989852905273	1.033719970703125	-0.01033530044555664	-0.05902429962158203	1.0193300170898438	-0.02219339942932129	-0.0834446029663086	1.0233400268554687	-0.045530601501464846	-0.06733740234375	1.0628800048828124	-0.027205799102783205	-0.03822760009765625	1.019260009765625	-0.02669919967651367	-0.05412820053100586	1.0065700073242188	-0.040389400482177734	-0.07700700378417968	1.0114299926757813	-0.05985580062866211	-0.060007598876953124	1.04468994140625	-0.07874340057373047	-0.12086599731445312	1.0124099731445313	-0.07525450134277344	-0.09874079895019532	1.01472998046875	-0.0728520965576172	-0.0798113021850586	1.0189600219726562	-0.06920760345458984	-0.04977199935913086	1.0259300537109375	-0.05821030044555664	0.009449370384216308	1.0782900390625
22	0.7333333333333333	-0.0013948800563812252	-0.049211498260498046	0.9898980102539062	-0.011965200424194336	-0.03904579925537109	1.014489990234375	-0.007247879981994629	-0.02310040092468262	1.0409200439453126	-0.026064199447631838	0.0008772820234298701	1.0530699462890625	0.011234600067138672	-0.13459700012207032	1.0236599731445313	0.005719699859619141	-0.1141240005493164	1.0333800048828126	-0.0016584099531173702	-0.09505840301513672	1.0436500244140625	-0.017957300186157227	-0.06346340179443359	1.0643900146484375	-0.0131048002243042	-0.043698600769042965	1.0341700439453125	-0.010334500312805176	-0.05943519973754883	1.0195999755859375	-0.022296600341796875	-0.08379199981689453	1.0238800048828125	-0.04575070190429688	-0.06762039947509765	1.0631300048828125	-0.027106800079345704	-0.038450199127197264	1.0199400024414063	-0.026586099624633788	-0.05442839813232422	1.0070499877929688	-0.040209598541259765	-0.07753130340576173	1.01202001953125	-0.059862998962402346	-0.06033219909667969	1.045030029296875	-0.07827040100097657	-0.12127899932861329	1.0126599731445312	-0.07494170379638672	-0.09914140319824219	1.015	-0.0726259994506836	-0.08020700073242187	1.01925	-0.06913050079345703	-0.050193099975585936	1.0264300537109374	-0.05815999984741211	0.008914460182189941	1.0786500244140624
23	0.7666666666666667	-0.001225280046463012	-0.049915500640869144	0.9906719970703125	-0.0117475004196167	-0.03977669906616211	1.015219970703125	-0.007136360168457031	-0.023858800888061523	1.041699951171875	-0.026077800750732422	0.00031921699643135	1.05375	0.01169480037689209	-0.13300900268554688	1.0217000122070312	0.005953539848327636	-0.11303399658203125	1.0322099609375	-0.0015462299585342401	-0.094427001953125	1.0433599853515625	-0.018003400802612306	-0.06385459899902343	1.0651600341796874	-0.013246899604797363	-0.04436890029907226	1.0353299560546876	-0.010184900283813476	-0.060152999877929686	1.0203499755859375	-0.0223843994140625	-0.084435302734375	1.024300048828125	-0.0457036018371582	-0.06827960205078125	1.06325	-0.026891799926757814	-0.03911899948120117	1.0206199951171875	-0.02639299964904785	-0.055345401763916016	1.00777001953125	-0.040083698272705075	-0.07817839813232422	1.0126500244140626	-0.0600172004699707	-0.0609197998046875	1.0458699951171875	-0.07761620330810547	-0.12178500366210937	1.0125900268554688	-0.07446440124511719	-0.09965000152587891	1.0151400146484375	-0.07230120086669922	-0.080706298828125	1.019530029296875	-0.06890650177001953	-0.05069380187988281	1.0266199951171875	-0.05826229858398437	0.00842825984954834	1.0793699951171876
24	0.8	-0.0007858110070228571	-0.051124801635742186	0.991552978515625	-0.011218600273132324	-0.040827098846435546	1.01622998046875	-0.006918560028076172	-0.024930999755859374	1.0428199462890626	-0.026041599273681642	-0.000701969027519226	1.05497998046875	0.011820300102233887	-0.13056500244140626	1.0183300170898437	0.005911270141601563	-0.11155000305175782	1.030489990234375	-0.001654019951820373	-0.0938041000366211	1.0431199951171874	-0.018176700592041014	-0.06467900085449219	1.0668399658203125	-0.013050999641418457	-0.045293800354003905	1.03602001953125	-0.010082099914550781	-0.06114059829711914	1.021510009765625	-0.022405399322509765	-0.08544979858398437	1.02506005859375	-0.045844100952148435	-0.06900559997558593	1.064030029296875	-0.026459800720214845	-0.03989569854736328	1.0211199951171874	-0.026137599945068358	-0.056238300323486326	1.0083900146484375	-0.03988790130615234	-0.07932779693603516	1.0132899780273437	-0.05978039932250977	-0.06165840148925781	1.0464100341796876	-0.07590550231933593	-0.12187000274658204	1.0104099731445313	-0.07331819915771484	-0.09985389709472656	1.0138900146484375	-0.07162799835205078	-0.08109159851074219	1.0190999755859376	-0.06883519744873047	-0.05127249908447266	1.0272099609375	-0.05842839813232422	0.0074721999168396	1.0803499755859376
